<svg width="20" height="20" viewBox="0 0 20 20" fill="none" xmlns="http://www.w3.org/2000/svg">
<mask id="mask0_0_8207" style="mask-type:alpha" maskUnits="userSpaceOnUse" x="0" y="0" width="20" height="20">
<rect width="20" height="20" fill="#D9D9D9"/>
</mask>
<g mask="url(#mask0_0_8207)">
<path d="M15.2062 6.94898L9.16536 12.9898L5.87453 9.70815L4.58203 11.0007L9.16536 15.584L16.4987 8.25065L15.2062 6.94898ZM10.9987 1.83398C5.9387 1.83398 1.83203 5.94065 1.83203 11.0007C1.83203 16.0607 5.9387 20.1673 10.9987 20.1673C16.0587 20.1673 20.1654 16.0607 20.1654 11.0007C20.1654 5.94065 16.0587 1.83398 10.9987 1.83398ZM10.9987 18.334C6.94703 18.334 3.66536 15.0523 3.66536 11.0007C3.66536 6.94898 6.94703 3.66732 10.9987 3.66732C15.0504 3.66732 18.332 6.94898 18.332 11.0007C18.332 15.0523 15.0504 18.334 10.9987 18.334Z" fill="#2E7D32"/>
</g>
</svg>
