<svg width="21" height="21" viewBox="0 0 21 21" fill="none" xmlns="http://www.w3.org/2000/svg">
<mask id="mask0_0_8511" style="mask-type:alpha" maskUnits="userSpaceOnUse" x="0" y="0" width="21" height="21">
<rect x="0.748047" y="0.0859375" width="20" height="20" fill="#D9D9D9"/>
</mask>
<g mask="url(#mask0_0_8511)">
<path d="M9.08138 13.3151L10.748 11.6484L12.4147 13.3151L13.4772 12.2526L11.8105 10.5859L13.4772 8.91927L12.4147 7.85677L10.748 9.52344L9.08138 7.85677L8.01888 8.91927L9.68555 10.5859L8.01888 12.2526L9.08138 13.3151ZM7.24805 17.0859C6.83555 17.0859 6.48242 16.9391 6.18867 16.6453C5.89492 16.3516 5.74805 15.9984 5.74805 15.5859V5.58594H4.74805V4.08594H8.74805V3.08594H12.748V4.08594H16.748V5.58594H15.748V15.5769C15.748 15.9996 15.6012 16.3568 15.3074 16.6484C15.0137 16.9401 14.6605 17.0859 14.248 17.0859H7.24805ZM14.248 5.58594H7.24805V15.5859H14.248V5.58594Z" fill="#FF4747"/>
</g>
</svg>
